<?xml version="1.0" encoding="UTF-8"?>
<svg version="1.1" viewBox="0 0 750 257.63" xmlns="http://www.w3.org/2000/svg" xmlns:xlink="http://www.w3.org/1999/xlink">
<defs>
<linearGradient id="f" x1="-4561.1" x2="-4561.1" y1="2932" y2="3070.2" gradientTransform="matrix(1.3509 0 0 1.3509 1626.6 -1095.5)" gradientUnits="userSpaceOnUse">
<stop stop-color="#196eef" offset="0"/>
<stop stop-color="#186dee" offset=".5"/>
<stop stop-color="#1065e7" offset="1"/>
</linearGradient>
<linearGradient id="e" x1="-4444.6" x2="-4444.6" y1="2979" y2="3068.3" gradientTransform="matrix(1.3509 0 0 1.3509 1626.6 -1095.5)" gradientUnits="userSpaceOnUse">
<stop stop-color="#de5744" offset="0"/>
<stop stop-color="#db4632" offset=".5"/>
<stop stop-color="#d13d29" offset="1"/>
</linearGradient>
<linearGradient id="d" x1="-4342.5" x2="-4342.5" y1="2979.2" y2="3068.1" gradientTransform="matrix(1.3509 0 0 1.3509 1626.6 -1095.5)" gradientUnits="userSpaceOnUse">
<stop stop-color="#ffc01a" offset="0"/>
<stop stop-color="#ffba03" offset=".5"/>
<stop stop-color="#ffb300" offset="1"/>
</linearGradient>
<linearGradient id="c" x1="-4248.9" x2="-4248.9" y1="2979" y2="3122.4" gradientTransform="matrix(1.3509 0 0 1.3509 1626.6 -1095.5)" gradientUnits="userSpaceOnUse">
<stop stop-color="#1a6fef" offset="0"/>
<stop stop-color="#1e72ef" offset=".25"/>
<stop stop-color="#166bec" offset=".5"/>
<stop stop-color="#1267e9" offset=".75"/>
<stop stop-color="#1063e5" stop-opacity=".87" offset="1"/>
</linearGradient>
<linearGradient id="b" x1="-4184.3" x2="-4184.3" y1="2934.5" y2="3065.8" gradientTransform="matrix(1.3509 0 0 1.3509 1626.6 -1095.5)" gradientUnits="userSpaceOnUse">
<stop stop-color="#0aa561" offset="0"/>
<stop stop-color="#009b58" offset=".5"/>
<stop stop-color="#00914b" offset="1"/>
</linearGradient>
<linearGradient id="a" x1="-4118.4" x2="-4118.4" y1="2979" y2="3068.1" gradientTransform="matrix(1.3509 0 0 1.3509 1626.6 -1095.5)" gradientUnits="userSpaceOnUse">
<stop stop-color="#de5644" offset="0"/>
<stop stop-color="#da4531" offset=".5"/>
<stop stop-color="#ce3a28" offset="1"/>
</linearGradient>
</defs>
<g transform="translate(4636.4 -2865.2)">
<path d="m-4520.1 2990.4h32.21v45.24c-10.05 3.23-22.74 5-35.93 5-53.46 0-84.88-45.78-84.88-90.49 0-43.85 28.42-74.61 68.07-74.61 25.09 0 39.69 8.5 52.75 20.34v14.76l24.49-24.49c-15.49-10.48-37.92-20.44-69.98-20.44-70.38 0-102.55 50.35-102.55 91.73 0 58.9 42.9 94.38 96.81 94.38 26.14 0 49.35-3.99 76.16-11.45v-46.74c0-2.39 1.05-4.03 2.62-5.47l8.46-8.46h-57.45z" fill="url(#f)"/>
<path d="m-4375.8 2928.9c-40.51 0-65.61 29.6-65.61 61.02 0 27.12 20.22 59.32 61.19 59.32 39.41 0 63.59-29.66 63.59-61.63 0-29.78-23.63-58.7-59.17-58.7zm-6.72 8.63c28.56 0 41.28 37.21 41.28 63.75 0 39.47-29.61 40.25-33.15 40.25-13.55 0-23.02-8.19-30.11-18.93-6.24-9.9-12.34-28.29-12.34-46.26 0-17.9 5.86-26.64 15.08-33.07 7.54-4.82 14.6-5.74 19.23-5.74z" fill="url(#e)"/>
<path d="m-4111 2928.9c-35.38 0-54.52 22.4-54.52 47.41 0 19.04 13.64 40.52 41.78 40.52h7.12s-1.94 4.71-1.95 9.26c0 6.71 2.41 10.48 7.53 16.28-48.42 2.95-67.88 22.48-67.88 43.47 0 18.38 17.6 36.47 54.59 36.47 43.79 0 66.47-24.31 66.47-48.17 0-16.82-8.38-26.04-29.6-41.94-6.24-4.85-7.45-7.94-7.45-11.57 0-5.2 3.11-8.64 4.25-9.94 2.01-2.12 5.49-4.54 6.79-5.7 7.13-6.04 17.2-14.98 17.2-32.82 0-12.24-5.09-22.77-16.69-32.63h14.16l10.64-10.64h-52.43zm-9.76 7.96c6.42 0 11.78 2.27 17.44 6.98 6.28 5.66 16.31 20.87 16.31 39.69 0 20.31-15.78 25.87-24.32 25.87-4.18 0-9.19-1.17-13.43-4.07-9.42-6.11-18.77-22.37-18.77-41.72 0-17.46 10.4-26.75 22.77-26.75zm14.01 113.22c2.7 0 4.64 0.22 4.64 0.22s6.37 4.55 10.82 7.95c10.36 8.19 16.82 14.45 16.82 25.6 0 15.33-14.22 27.35-37.25 27.35-25.28 0-44.6-11.77-44.6-30.99 0-15.92 13.24-29.62 49.57-30.13z" fill="url(#c)"/>
<path d="m-4050.9 3045.8h48.57l7.4-7.4-13.93-1.74c-3.75-0.46-5.98-3.7-5.98-6.84v-146.71c0-2.89 1.34-4.37 2.32-5.31l8.76-8.76h-41.42l-10.78 10.78h16.1v151.97c0 2.16-0.68 3.63-2.14 5.14z" fill="url(#b)"/>
<path d="m-3936.5 2928.9c-27.12 0-55.93 20.67-55.93 57.78 0 30.65 20.67 62.56 59.29 62.56 9.63 0 17.56-1.24 24.99-4.65 7.97-3.67 15.64-9.63 21.24-17.12-10.57 5.33-19.19 8.83-30.64 8.83-21.76 0-42.74-15.7-50.08-44.56l76.87-31.07c-4.44-15.83-16.96-31.77-45.73-31.77zm-5.02 8.49c14.55 0 25.07 11.97 25.07 21.34 0 3.03-1.9 4.63-5.66 6.11l-47.25 19.11s-1.28-5.95-1.28-12.38c0-26.97 19.5-34.18 29.12-34.18z" fill="url(#a)"/>
<path d="m-4238.3 2928.9c-40.51 0-65.61 29.6-65.61 61.02 0 27.12 20.22 59.32 61.19 59.32 39.41 0 63.59-29.66 63.59-61.63 0-29.78-23.63-58.7-59.17-58.7zm-6.72 8.63c28.56 0 41.28 37.21 41.28 63.75 0 39.47-29.61 40.25-33.15 40.25-13.55 0-23.02-8.19-30.11-18.93-6.24-9.9-12.34-28.29-12.34-46.26 0-17.9 5.86-26.64 15.08-33.07 7.54-4.82 14.6-5.74 19.23-5.74z" fill="url(#d)"/>
</g>
</svg>
